<svg width="433" height="46" viewBox="0 0 433 46" fill="none" xmlns="http://www.w3.org/2000/svg">
<path fill-rule="evenodd" clip-rule="evenodd" d="M242.877 1.08434C199.646 3.53859 170.898 6.32751 125.298 12.5747C77.7712 19.045 49.2439 24.0093 33.5484 28.6389C18.1833 33.1012 2.43267 41.0218 0.229792 45.3167C-0.17407 46.0976 -0.0455951 46.2092 0.61527 45.6514C6.28769 40.6871 28.1513 34.7746 77.7161 24.7903C121.939 15.8657 187.915 7.10842 234.616 3.87326C285.228 0.414992 350.653 0.526549 406.992 4.15216C419.989 5.04461 426.212 5.76973 427.644 6.66219C428.745 7.38731 424.725 7.33153 397.079 6.3833C342.227 4.48683 294.59 5.65816 243.428 10.3436C199.095 14.3596 173.046 17.4275 127.777 24.0093C90.3277 29.4756 79.864 31.5395 79.864 33.4359C79.864 35.3324 84.7103 34.9419 113.458 30.8701C163.574 23.7862 193.808 20.83 248.384 17.7621C264.906 16.8697 323.007 16.4792 337.271 17.2044C351.59 17.9295 362.934 19.1008 370.149 20.6069C377.583 22.1687 378.244 22.336 377.694 22.8938C376.702 23.8978 369.433 25.0691 364.091 25.0691C358.749 25.0691 273.718 29.7545 267.935 30.3681C266.283 30.5354 254.387 30.9259 241.5 31.2048C220.463 31.651 184.115 33.6033 168.805 35.1093C154.542 36.5038 137.414 38.6233 134.44 39.2927C131.246 40.0736 130.365 40.464 130.916 40.966C131.026 41.1334 140.939 40.5198 152.89 39.5716C210.88 35.1651 231.587 33.9937 262.152 33.4359C291.506 32.9339 306.871 33.3802 363.485 36.5038C388.323 37.8982 390.14 37.8982 378.63 36.7826C356.876 34.6073 335.013 32.9339 319.593 32.2645C310.891 31.8741 303.897 31.4279 304.007 31.3163C304.172 31.149 313.259 30.5912 324.219 30.0334C335.233 29.4756 349.937 28.7505 356.876 28.4159C363.871 28.0812 371.25 27.4118 373.288 27.0214C378.41 25.9616 382.926 23.0611 381.604 21.7224C380.778 20.8858 362.989 17.9852 352.746 17.037C336.224 15.4752 317.059 14.8617 286.109 14.9732C242.877 15.0848 201.408 17.2601 158.066 21.7782C152.339 22.336 147.162 22.838 146.501 22.7822C143.582 22.6148 178.333 18.3199 202.124 15.8657C258.848 10.1205 299.326 7.94511 340.906 8.55868C354.563 8.78179 370.424 9.17223 376.152 9.45112C399.337 10.5667 424.23 11.2918 427.203 10.9013C429.461 10.6225 430.673 10.1205 431.774 9.06066C432.545 8.22398 433.096 7.33152 432.986 6.99685C432.6 5.8255 427.203 4.48681 420.43 3.92903C407.873 2.86924 377.583 1.36323 351.92 0.52655C323.998 -0.365907 263.584 -0.0870145 242.877 1.08434ZM144.464 23.2284C143.913 23.34 142.922 23.34 142.261 23.2284C141.545 23.1169 141.985 23.0053 143.197 23.0053C144.408 22.9495 144.959 23.0611 144.464 23.2284ZM139.782 23.7862C139.397 23.8978 138.626 23.8978 138.13 23.7862C137.58 23.6189 137.91 23.5073 138.791 23.5073C139.727 23.5073 140.113 23.6189 139.782 23.7862Z" fill="#FFF"/>
</svg>
